<?xml version="1.0" encoding="utf-8"?>
<!-- Generator: Adobe Illustrator 19.2.1, SVG Export Plug-In . SVG Version: 6.00 Build 0)  -->
<svg version="1.1" id="レイヤー_1" xmlns="http://www.w3.org/2000/svg" xmlns:xlink="http://www.w3.org/1999/xlink" x="0px"
	 y="0px" viewBox="0 0 50 50" style="enable-background:new 0 0 50 50;" xml:space="preserve">
<style type="text/css">
	.st0{fill:none;stroke:#000000;stroke-width:5;stroke-miterlimit:10;}
</style>
<g>
	<path d="M107.9-100.1c11,0,20,6.9,20,15.3c0,8.4-9,15.3-20,15.3c-1.1,0-2.2-0.1-3.3-0.2l-2.4-0.3l-1.7,1.7
		c-1.1,1.1-2.2,1.9-3.4,2.6c0.1-0.6,0.2-1.3,0.2-1.9c0-0.7-0.1-1.4-0.2-2.1L96.8-72l-1.9-1.2c-4.5-2.9-7-7.2-7-11.6
		C87.9-93.2,96.9-100.1,107.9-100.1 M107.9-105.1c-13.8,0-25,9.1-25,20.3c0,6.4,3.6,12.1,9.3,15.8c0.1,0.5,0.1,0.9,0.1,1.4
		c0,3.4-2.9,6.4-6.2,8v1.3c6.2-0.1,12.6-1.1,18-6.5c1.3,0.2,2.6,0.2,3.9,0.2c13.8,0,25-9.1,25-20.3
		C132.9-96,121.7-105.1,107.9-105.1L107.9-105.1z"/>
</g>
<g>
	<path d="M126.5-13.9l2,2.5l1.5,1.9h2.4h20.5v25.7h-40V-9.4h1.9h2.4l1.5-1.9l2-2.5H126.5 M127.9-18.9c-0.1,0-0.2,0-0.2,0l-1,0h-6.1
		l-1,0c-0.1,0-0.2,0-0.2,0c-1.2,0-1.6,0.8-1.6,0.8l-2.9,3.7h-4.1c-1.6,0-2.8,1.3-2.8,2.8v30.1c0,1.6,1.3,2.8,2.8,2.8h44.4
		c1.6,0,2.8-1.3,2.8-2.8v-30.1c0-1.6-1.3-2.8-2.8-2.8h-22.7h0l-2.9-3.7C129.5-18.1,129.1-18.9,127.9-18.9L127.9-18.9z"/>
</g>
<path class="st0" d="M17.7,12.8c-1.4,0.1-2.5,0.6-3.3,1.5c-0.8,0.9-1.3,1.9-1.3,3.2l0,0c0.1,1.3,0.6,2.4,1.5,3.2
	c0.9,0.9,1.9,1.3,3.1,1.3c1.3,0,2.4-0.5,3.2-1.4c0.8-0.9,1.3-2,1.3-3.1c0-1.4-0.5-2.5-1.4-3.4C19.8,13.2,18.8,12.8,17.7,12.8z"/>
<g>
	<path d="M22.7,4.8l20.7,20.9L25.9,43.4L5.1,22.5L6.3,6L22.7,4.8 M24.6-0.4L2.8,1.2c-0.6,0-1.2,0.6-1.2,1.2L0,24.4l25.1,25.2
		c0.2,0.2,0.5,0.3,0.8,0.3c0.3,0,0.6-0.1,0.8-0.3l23-23.2c0.5-0.5,0.5-1.2,0-1.6L24.6-0.4L24.6-0.4z"/>
</g>
</svg>
