<?xml version="1.0" encoding="utf-8"?>
<!-- Generator: Adobe Illustrator 19.2.1, SVG Export Plug-In . SVG Version: 6.00 Build 0)  -->
<svg version="1.1" id="レイヤー_1" xmlns="http://www.w3.org/2000/svg" xmlns:xlink="http://www.w3.org/1999/xlink" x="0px"
	 y="0px" viewBox="0 0 50 50" style="enable-background:new 0 0 50 50;" xml:space="preserve">
<g>
	<path d="M25,6.6c11,0,20,6.9,20,15.3c0,8.4-9,15.3-20,15.3c-1.1,0-2.2-0.1-3.3-0.2l-2.4-0.3l-1.7,1.7c-1.1,1.1-2.2,1.9-3.4,2.6
		c0.1-0.6,0.2-1.3,0.2-1.9c0-0.7-0.1-1.4-0.2-2.1l-0.3-2.2L12,33.5c-4.5-2.9-7-7.2-7-11.6C5,13.4,14,6.6,25,6.6 M25,1.6
		c-13.8,0-25,9.1-25,20.3c0,6.4,3.6,12.1,9.3,15.8c0.1,0.5,0.1,0.9,0.1,1.4c0,3.4-2.9,6.4-6.2,8v1.3c6.2-0.1,12.6-1.1,18-6.5
		c1.3,0.2,2.6,0.2,3.9,0.2c13.8,0,25-9.1,25-20.3C50,10.7,38.8,1.6,25,1.6L25,1.6z"/>
</g>
</svg>
