<?xml version="1.0" encoding="utf-8"?>
<!-- Generator: Adobe Illustrator 19.2.1, SVG Export Plug-In . SVG Version: 6.00 Build 0)  -->
<svg version="1.1" id="レイヤー_1" xmlns="http://www.w3.org/2000/svg" xmlns:xlink="http://www.w3.org/1999/xlink" x="0px"
	 y="0px" viewBox="0 0 50 50" style="enable-background:new 0 0 50 50;" xml:space="preserve">
<g>
	<path d="M107.9-100.1c11,0,20,6.9,20,15.3c0,8.4-9,15.3-20,15.3c-1.1,0-2.2-0.1-3.3-0.2l-2.4-0.3l-1.7,1.7
		c-1.1,1.1-2.2,1.9-3.4,2.6c0.1-0.6,0.2-1.3,0.2-1.9c0-0.7-0.1-1.4-0.2-2.1L96.8-72l-1.9-1.2c-4.5-2.9-7-7.2-7-11.6
		C87.9-93.2,96.9-100.1,107.9-100.1 M107.9-105.1c-13.8,0-25,9.1-25,20.3c0,6.4,3.6,12.1,9.3,15.8c0.1,0.5,0.1,0.9,0.1,1.4
		c0,3.4-2.9,6.4-6.2,8v1.3c6.2-0.1,12.6-1.1,18-6.5c1.3,0.2,2.6,0.2,3.9,0.2c13.8,0,25-9.1,25-20.3
		C132.9-96,121.7-105.1,107.9-105.1L107.9-105.1z"/>
</g>
<g>
	<path d="M18.6,9.9l2,2.5l1.5,1.9h2.4H45v25.7H5V14.4h1.9h2.4l1.5-1.9l2-2.5H18.6 M20,4.9c-0.1,0-0.2,0-0.2,0l-1,0h-6.1l-1,0
		c-0.1,0-0.2,0-0.2,0c-1.2,0-1.6,0.8-1.6,0.8L6.9,9.4H2.8C1.3,9.4,0,10.6,0,12.2v30.1c0,1.6,1.3,2.8,2.8,2.8h44.4
		c1.6,0,2.8-1.3,2.8-2.8V12.2c0-1.6-1.3-2.8-2.8-2.8H24.5h0l-2.9-3.7C21.6,5.7,21.2,4.9,20,4.9L20,4.9z"/>
</g>
</svg>
