<?xml version="1.0" encoding="utf-8"?>
<!-- Generator: Adobe Illustrator 19.2.1, SVG Export Plug-In . SVG Version: 6.00 Build 0)  -->
<svg version="1.1" id="レイヤー_1" xmlns="http://www.w3.org/2000/svg" xmlns:xlink="http://www.w3.org/1999/xlink" x="0px"
	 y="0px" viewBox="0 0 50 50" style="enable-background:new 0 0 50 50;" xml:space="preserve">
<g>
	<rect x="0.5" y="15.5" width="10.5" height="34.5"/>
	<path d="M17,15.5c0,3,0.5,6.5,0.5,11V50H28V30c0-1,0-2,0.5-2.5C29,25,31,23,34,23c4,0,5.5,3,5.5,7.5v19H50v-20c0-10-5.5-15-12.5-15
		c-5.5,0-9,3.5-10.5,5.5l0,0l-0.5-5H17V15.5z"/>
	<path d="M0,5.5c0,3,2,5.5,5.5,5.5s6-2.5,6-5.5S9.5,0,6,0C2,0.5,0,2.5,0,5.5z"/>
</g>
</svg>
