<?xml version="1.0" encoding="utf-8"?>
<!-- Generator: Adobe Illustrator 19.2.1, SVG Export Plug-In . SVG Version: 6.00 Build 0)  -->
<svg version="1.1" id="レイヤー_1" xmlns="http://www.w3.org/2000/svg" xmlns:xlink="http://www.w3.org/1999/xlink" x="0px"
	 y="0px" viewBox="0 0 50 50" style="enable-background:new 0 0 50 50;" xml:space="preserve">
<path d="M45.5,0H5C0.5,0.5,0,4.5,0,4.5v41c0,0,1,4,4.5,4.5h41c0,0,3.5-0.5,4.5-5V5C49.5,1,45.5,0,45.5,0z M34.5,7.5c0,0,0-1.5,1.5-2
	h6.5c0,0,1.5,0.5,1.5,2v6c0,0,0,1.5-1.5,1.5h-6c0,0-1,0-1.5-1.5v-6H34.5z M25,15.5c5.5,0,10,4.5,10,10s-4.5,10-10,10s-10-4.5-10-10
	C15.5,19.5,19.5,15.5,25,15.5z M44.5,43c-1,1.5-2,1.5-2,1.5H7c-1-0.5-1.5-2-1.5-2V21H10c-1,4.5,0,8,0,8c2.5,6,5.5,8,5.5,8
	c3,3,8,3.5,8,3.5c5.5,0,9-2,9-2c5-3,7-8,7-8C41.5,26,40,21,40,21h4.5V43z"/>
</svg>
